<svg width="23" height="13" viewBox="0 0 23 13" fill="none" xmlns="http://www.w3.org/2000/svg">
<path d="M8.35156 6.27344C8.35156 8.2474 8.03906 9.72135 7.41406 10.6953C6.79427 11.6693 5.84375 12.1562 4.5625 12.1562C3.33333 12.1562 2.39844 11.6589 1.75781 10.6641C1.11719 9.66406 0.796875 8.20052 0.796875 6.27344C0.796875 4.28385 1.10677 2.80729 1.72656 1.84375C2.34635 0.880208 3.29167 0.398438 4.5625 0.398438C5.80208 0.398438 6.74219 0.901042 7.38281 1.90625C8.02865 2.91146 8.35156 4.36719 8.35156 6.27344ZM2.10938 6.27344C2.10938 7.9349 2.30469 9.14583 2.69531 9.90625C3.08594 10.6615 3.70833 11.0391 4.5625 11.0391C5.42708 11.0391 6.05208 10.6562 6.4375 9.89062C6.82812 9.11979 7.02344 7.91406 7.02344 6.27344C7.02344 4.63281 6.82812 3.43229 6.4375 2.67188C6.05208 1.90625 5.42708 1.52344 4.5625 1.52344C3.70833 1.52344 3.08594 1.90104 2.69531 2.65625C2.30469 3.40625 2.10938 4.61198 2.10938 6.27344ZM9.8125 8.30469V7.11719H13.6484V8.30469H9.8125ZM18.6641 5.02344C19.8672 5.02344 20.8125 5.32292 21.5 5.92188C22.1927 6.51562 22.5391 7.33073 22.5391 8.36719C22.5391 9.54948 22.1615 10.4766 21.4062 11.1484C20.6562 11.8203 19.6198 12.1562 18.2969 12.1562C17.0104 12.1562 16.0286 11.9505 15.3516 11.5391V10.2891C15.7161 10.5234 16.1693 10.7083 16.7109 10.8438C17.2526 10.974 17.7865 11.0391 18.3125 11.0391C19.2292 11.0391 19.9401 10.8229 20.4453 10.3906C20.9557 9.95833 21.2109 9.33333 21.2109 8.51562C21.2109 6.92188 20.2344 6.125 18.2812 6.125C17.7865 6.125 17.125 6.20052 16.2969 6.35156L15.625 5.92188L16.0547 0.578125H21.7344V1.77344H17.1641L16.875 5.20312C17.474 5.08333 18.0703 5.02344 18.6641 5.02344Z" fill="#1E0606"/>
</svg>
