<svg width="40" height="13" viewBox="0 0 40 13" fill="none" xmlns="http://www.w3.org/2000/svg">
<path d="M4.58594 12H3.32031V3.85938C3.32031 3.18229 3.34115 2.54167 3.38281 1.9375C3.27344 2.04688 3.15104 2.16146 3.01562 2.28125C2.88021 2.40104 2.26042 2.90885 1.15625 3.80469L0.46875 2.91406L3.49219 0.578125H4.58594V12ZM16.5078 6.27344C16.5078 8.2474 16.1953 9.72135 15.5703 10.6953C14.9505 11.6693 14 12.1562 12.7188 12.1562C11.4896 12.1562 10.5547 11.6589 9.91406 10.6641C9.27344 9.66406 8.95312 8.20052 8.95312 6.27344C8.95312 4.28385 9.26302 2.80729 9.88281 1.84375C10.5026 0.880208 11.4479 0.398438 12.7188 0.398438C13.9583 0.398438 14.8984 0.901042 15.5391 1.90625C16.1849 2.91146 16.5078 4.36719 16.5078 6.27344ZM10.2656 6.27344C10.2656 7.9349 10.4609 9.14583 10.8516 9.90625C11.2422 10.6615 11.8646 11.0391 12.7188 11.0391C13.5833 11.0391 14.2083 10.6562 14.5938 9.89062C14.9844 9.11979 15.1797 7.91406 15.1797 6.27344C15.1797 4.63281 14.9844 3.43229 14.5938 2.67188C14.2083 1.90625 13.5833 1.52344 12.7188 1.52344C11.8646 1.52344 11.2422 1.90104 10.8516 2.65625C10.4609 3.40625 10.2656 4.61198 10.2656 6.27344ZM17.9688 8.30469V7.11719H21.8047V8.30469H17.9688ZM30.7578 12H23.25V10.8828L26.2578 7.85938C27.1745 6.93229 27.7786 6.27083 28.0703 5.875C28.362 5.47917 28.5807 5.09375 28.7266 4.71875C28.8724 4.34375 28.9453 3.9401 28.9453 3.50781C28.9453 2.89844 28.7604 2.41667 28.3906 2.0625C28.0208 1.70312 27.5078 1.52344 26.8516 1.52344C26.3776 1.52344 25.9271 1.60156 25.5 1.75781C25.0781 1.91406 24.6068 2.19792 24.0859 2.60938L23.3984 1.72656C24.4505 0.851562 25.5964 0.414062 26.8359 0.414062C27.9089 0.414062 28.75 0.690104 29.3594 1.24219C29.9688 1.78906 30.2734 2.52604 30.2734 3.45312C30.2734 4.17708 30.0703 4.89323 29.6641 5.60156C29.2578 6.3099 28.4974 7.20573 27.3828 8.28906L24.8828 10.7344V10.7969H30.7578V12ZM39.9766 6.27344C39.9766 8.2474 39.6641 9.72135 39.0391 10.6953C38.4193 11.6693 37.4688 12.1562 36.1875 12.1562C34.9583 12.1562 34.0234 11.6589 33.3828 10.6641C32.7422 9.66406 32.4219 8.20052 32.4219 6.27344C32.4219 4.28385 32.7318 2.80729 33.3516 1.84375C33.9714 0.880208 34.9167 0.398438 36.1875 0.398438C37.4271 0.398438 38.3672 0.901042 39.0078 1.90625C39.6536 2.91146 39.9766 4.36719 39.9766 6.27344ZM33.7344 6.27344C33.7344 7.9349 33.9297 9.14583 34.3203 9.90625C34.7109 10.6615 35.3333 11.0391 36.1875 11.0391C37.0521 11.0391 37.6771 10.6562 38.0625 9.89062C38.4531 9.11979 38.6484 7.91406 38.6484 6.27344C38.6484 4.63281 38.4531 3.43229 38.0625 2.67188C37.6771 1.90625 37.0521 1.52344 36.1875 1.52344C35.3333 1.52344 34.7109 1.90104 34.3203 2.65625C33.9297 3.40625 33.7344 4.61198 33.7344 6.27344Z" fill="#1E0606"/>
</svg>
