<svg width="41" height="13" viewBox="0 0 41 13" fill="none" xmlns="http://www.w3.org/2000/svg">
<path d="M8.28906 12H0.78125V10.8828L3.78906 7.85938C4.70573 6.93229 5.3099 6.27083 5.60156 5.875C5.89323 5.47917 6.11198 5.09375 6.25781 4.71875C6.40365 4.34375 6.47656 3.9401 6.47656 3.50781C6.47656 2.89844 6.29167 2.41667 5.92188 2.0625C5.55208 1.70312 5.03906 1.52344 4.38281 1.52344C3.90885 1.52344 3.45833 1.60156 3.03125 1.75781C2.60938 1.91406 2.13802 2.19792 1.61719 2.60938L0.929688 1.72656C1.98177 0.851562 3.1276 0.414062 4.36719 0.414062C5.4401 0.414062 6.28125 0.690104 6.89062 1.24219C7.5 1.78906 7.80469 2.52604 7.80469 3.45312C7.80469 4.17708 7.60156 4.89323 7.19531 5.60156C6.78906 6.3099 6.02865 7.20573 4.91406 8.28906L2.41406 10.7344V10.7969H8.28906V12ZM17.5078 6.27344C17.5078 8.2474 17.1953 9.72135 16.5703 10.6953C15.9505 11.6693 15 12.1562 13.7188 12.1562C12.4896 12.1562 11.5547 11.6589 10.9141 10.6641C10.2734 9.66406 9.95312 8.20052 9.95312 6.27344C9.95312 4.28385 10.263 2.80729 10.8828 1.84375C11.5026 0.880208 12.4479 0.398438 13.7188 0.398438C14.9583 0.398438 15.8984 0.901042 16.5391 1.90625C17.1849 2.91146 17.5078 4.36719 17.5078 6.27344ZM11.2656 6.27344C11.2656 7.9349 11.4609 9.14583 11.8516 9.90625C12.2422 10.6615 12.8646 11.0391 13.7188 11.0391C14.5833 11.0391 15.2083 10.6562 15.5938 9.89062C15.9844 9.11979 16.1797 7.91406 16.1797 6.27344C16.1797 4.63281 15.9844 3.43229 15.5938 2.67188C15.2083 1.90625 14.5833 1.52344 13.7188 1.52344C12.8646 1.52344 12.2422 1.90104 11.8516 2.65625C11.4609 3.40625 11.2656 4.61198 11.2656 6.27344ZM18.9688 8.30469V7.11719H22.8047V8.30469H18.9688ZM27.8203 5.02344C29.0234 5.02344 29.9688 5.32292 30.6562 5.92188C31.349 6.51562 31.6953 7.33073 31.6953 8.36719C31.6953 9.54948 31.3177 10.4766 30.5625 11.1484C29.8125 11.8203 28.776 12.1562 27.4531 12.1562C26.1667 12.1562 25.1849 11.9505 24.5078 11.5391V10.2891C24.8724 10.5234 25.3255 10.7083 25.8672 10.8438C26.4089 10.974 26.9427 11.0391 27.4688 11.0391C28.3854 11.0391 29.0964 10.8229 29.6016 10.3906C30.112 9.95833 30.3672 9.33333 30.3672 8.51562C30.3672 6.92188 29.3906 6.125 27.4375 6.125C26.9427 6.125 26.2812 6.20052 25.4531 6.35156L24.7812 5.92188L25.2109 0.578125H30.8906V1.77344H26.3203L26.0312 5.20312C26.6302 5.08333 27.2266 5.02344 27.8203 5.02344ZM40.9766 6.27344C40.9766 8.2474 40.6641 9.72135 40.0391 10.6953C39.4193 11.6693 38.4688 12.1562 37.1875 12.1562C35.9583 12.1562 35.0234 11.6589 34.3828 10.6641C33.7422 9.66406 33.4219 8.20052 33.4219 6.27344C33.4219 4.28385 33.7318 2.80729 34.3516 1.84375C34.9714 0.880208 35.9167 0.398438 37.1875 0.398438C38.4271 0.398438 39.3672 0.901042 40.0078 1.90625C40.6536 2.91146 40.9766 4.36719 40.9766 6.27344ZM34.7344 6.27344C34.7344 7.9349 34.9297 9.14583 35.3203 9.90625C35.7109 10.6615 36.3333 11.0391 37.1875 11.0391C38.0521 11.0391 38.6771 10.6562 39.0625 9.89062C39.4531 9.11979 39.6484 7.91406 39.6484 6.27344C39.6484 4.63281 39.4531 3.43229 39.0625 2.67188C38.6771 1.90625 38.0521 1.52344 37.1875 1.52344C36.3333 1.52344 35.7109 1.90104 35.3203 2.65625C34.9297 3.40625 34.7344 4.61198 34.7344 6.27344Z" fill="#1E0606"/>
</svg>
