<svg width="59" height="59" viewBox="0 0 59 59" fill="none" xmlns="http://www.w3.org/2000/svg">
<rect width="59" height="59" fill="#E5E5E5"/>
<rect width="1400" height="2363" transform="translate(-146 -1648)" fill="white"/>
<rect x="-146" y="-57" width="350" height="215" fill="#F7F8FA"/>
<mask id="path-2-inside-1_1176_0" fill="white">
<path d="M41.6071 0.202272C37.5378 0.0316221 35.0017 -0.0227006 29.5 0.00824703C23.9983 -0.0227006 21.4622 0.0316221 17.3929 0.202272C14.244 0.384901 12.6764 0.678169 10.2528 1.56044C7.88102 2.5191 6.74013 3.28443 4.97528 4.97528C3.28443 6.74013 2.5191 7.88102 1.56044 10.2528C0.678169 12.6764 0.384901 14.244 0.202272 17.3929C0.0316221 21.4622 -0.0227006 23.9983 0.00824703 29.5C-0.0227006 35.0017 0.0316221 37.5378 0.202272 41.6071C0.384901 44.756 0.678169 46.3236 1.56044 48.7472C2.5191 51.119 3.28443 52.2599 4.97528 54.0247C6.74013 55.7156 7.88102 56.4809 10.2528 57.4396C12.6764 58.3218 14.244 58.6151 17.3929 58.7977C21.4622 58.9684 23.9983 59.0227 29.5 58.9918C35.0017 59.0227 37.5378 58.9684 41.6071 58.7977C44.756 58.6151 46.3236 58.3218 48.7472 57.4396C51.119 56.4809 52.2599 55.7156 54.0247 54.0247C55.7156 52.2599 56.4809 51.119 57.4396 48.7472C58.3218 46.3236 58.6151 44.756 58.7977 41.6071C58.9684 37.5378 59.0227 35.0017 58.9918 29.5C59.0227 23.9983 58.9684 21.4622 58.7977 17.3929C58.6151 14.244 58.3218 12.6764 57.4396 10.2528C56.4809 7.88102 55.7156 6.74013 54.0247 4.97528C52.2599 3.28443 51.119 2.5191 48.7472 1.56044C46.3236 0.678169 44.756 0.384901 41.6071 0.202272Z"/>
</mask>
<path d="M41.6071 0.202272C37.5378 0.0316221 35.0017 -0.0227006 29.5 0.00824703C23.9983 -0.0227006 21.4622 0.0316221 17.3929 0.202272C14.244 0.384901 12.6764 0.678169 10.2528 1.56044C7.88102 2.5191 6.74013 3.28443 4.97528 4.97528C3.28443 6.74013 2.5191 7.88102 1.56044 10.2528C0.678169 12.6764 0.384901 14.244 0.202272 17.3929C0.0316221 21.4622 -0.0227006 23.9983 0.00824703 29.5C-0.0227006 35.0017 0.0316221 37.5378 0.202272 41.6071C0.384901 44.756 0.678169 46.3236 1.56044 48.7472C2.5191 51.119 3.28443 52.2599 4.97528 54.0247C6.74013 55.7156 7.88102 56.4809 10.2528 57.4396C12.6764 58.3218 14.244 58.6151 17.3929 58.7977C21.4622 58.9684 23.9983 59.0227 29.5 58.9918C35.0017 59.0227 37.5378 58.9684 41.6071 58.7977C44.756 58.6151 46.3236 58.3218 48.7472 57.4396C51.119 56.4809 52.2599 55.7156 54.0247 54.0247C55.7156 52.2599 56.4809 51.119 57.4396 48.7472C58.3218 46.3236 58.6151 44.756 58.7977 41.6071C58.9684 37.5378 59.0227 35.0017 58.9918 29.5C59.0227 23.9983 58.9684 21.4622 58.7977 17.3929C58.6151 14.244 58.3218 12.6764 57.4396 10.2528C56.4809 7.88102 55.7156 6.74013 54.0247 4.97528C52.2599 3.28443 51.119 2.5191 48.7472 1.56044C46.3236 0.678169 44.756 0.384901 41.6071 0.202272Z" stroke="#2C3036" stroke-width="8" stroke-linecap="square" mask="url(#path-2-inside-1_1176_0)"/>
<circle cx="29.5" cy="29.5" r="12.5" stroke="#2C3036" stroke-width="4" stroke-linecap="square"/>
<circle cx="45.5" cy="13.5" r="3.5" fill="#2C3036"/>
</svg>
